<svg width="192" height="20" viewBox="0 0 192 20" fill="none" xmlns="http://www.w3.org/2000/svg">
<g clip-path="url(#clip0_381_37)">
<path d="M7.3121 15.2428C5.97845 15.2428 4.7521 14.9134 3.63306 14.2546C2.52168 13.5882 1.63641 12.6758 0.977245 11.5173C0.325749 10.3512 0 9.04875 0 7.61005C0 6.19407 0.333413 4.90681 1.00024 3.74827C1.66707 2.58217 2.56767 1.66593 3.70204 0.999594C4.84408 0.333248 6.09342 7.4277e-05 7.45006 7.4277e-05C8.50013 7.4277e-05 9.4697 0.178019 10.3588 0.533909C11.2479 0.882227 11.9952 1.37441 12.6007 2.01047C13.2139 2.63896 13.6431 3.36209 13.8884 4.17988C13.9037 4.21775 13.9114 4.26696 13.9114 4.32754C13.9114 4.40326 13.8807 4.46763 13.8194 4.52063C13.7658 4.56606 13.6891 4.58878 13.5895 4.58878H11.7959C11.6963 4.58878 11.612 4.56985 11.543 4.53199C11.4817 4.48655 11.4204 4.41461 11.359 4.31618C10.9911 3.58926 10.4814 3.04786 9.82994 2.69196C9.17845 2.33607 8.36982 2.15813 7.40407 2.15813C6.41533 2.15813 5.53006 2.39665 4.74827 2.87369C3.97413 3.35074 3.36863 4.00572 2.93174 4.83866C2.49485 5.66401 2.27641 6.58782 2.27641 7.61005C2.27641 8.63986 2.49485 9.57123 2.93174 10.4042C3.37629 11.2371 3.9933 11.8921 4.78276 12.3691C5.57989 12.8462 6.48431 13.0847 7.49605 13.0847C8.27785 13.0847 8.99066 12.9484 9.63449 12.6758C10.286 12.3956 10.8263 11.9867 11.2556 11.4491C11.6848 10.9039 11.9722 10.2452 12.1178 9.47279H8.00192C7.88695 9.47279 7.79497 9.44251 7.72599 9.38193C7.66467 9.31378 7.63401 9.22292 7.63401 9.10933V7.72363C7.63401 7.61005 7.66467 7.52298 7.72599 7.4624C7.79497 7.39425 7.88695 7.36017 8.00192 7.36017H14.0263C14.2639 7.36017 14.3943 7.47376 14.4172 7.70092C14.4326 7.82207 14.4402 8.05681 14.4402 8.40513C14.4402 9.75296 14.1452 10.9456 13.555 11.983C12.9725 13.0128 12.1408 13.8154 11.0601 14.3909C9.98706 14.9588 8.73773 15.2428 7.3121 15.2428ZM16.7195 15.061C16.6046 15.061 16.5126 15.0308 16.4436 14.9702C16.3822 14.902 16.3516 14.8111 16.3516 14.6976V0.545267C16.3516 0.431685 16.3822 0.344606 16.4436 0.284029C16.5126 0.21588 16.6046 0.181805 16.7195 0.181805H18.0532C18.1681 0.181805 18.2562 0.21588 18.3176 0.284029C18.3866 0.344606 18.4211 0.431685 18.4211 0.545267V14.6976C18.4211 14.8111 18.3866 14.902 18.3176 14.9702C18.2562 15.0308 18.1681 15.061 18.0532 15.061H16.7195ZM25.5179 15.2428C24.4832 15.2428 23.5597 15.0118 22.7471 14.5499C21.9347 14.0804 21.2985 13.433 20.8386 12.6077C20.3865 11.7747 20.1603 10.8358 20.1603 9.79082C20.1603 8.76859 20.3902 7.84101 20.8501 7.00807C21.3178 6.17513 21.9577 5.52394 22.7701 5.05446C23.5903 4.57742 24.5062 4.3389 25.5179 4.3389C26.545 4.3389 27.4648 4.57363 28.2772 5.04311C29.0897 5.505 29.7221 6.15242 30.1742 6.98535C30.6264 7.81071 30.8525 8.74587 30.8525 9.79082C30.8525 10.8131 30.6188 11.7406 30.1512 12.5736C29.6913 13.4065 29.0552 14.0615 28.2427 14.5385C27.4303 15.0081 26.522 15.2428 25.5179 15.2428ZM22.2298 9.79082C22.2298 10.4572 22.3716 11.0591 22.6551 11.5968C22.9464 12.1344 23.3412 12.5584 23.8393 12.8689C24.3376 13.1794 24.8971 13.3346 25.5179 13.3346C26.1311 13.3346 26.6869 13.1831 27.185 12.8802C27.6832 12.5698 28.0741 12.1458 28.3577 11.6081C28.6413 11.0705 28.783 10.4647 28.783 9.79082C28.783 9.1169 28.6413 8.51114 28.3577 7.97351C28.0741 7.43589 27.6832 7.01564 27.185 6.71276C26.6869 6.4023 26.1311 6.24707 25.5179 6.24707C24.8971 6.24707 24.3337 6.4023 23.8278 6.71276C23.3297 7.01564 22.9388 7.43589 22.6551 7.97351C22.3716 8.51114 22.2298 9.1169 22.2298 9.79082ZM38.0357 15.2428C37.2845 15.2428 36.6177 15.1178 36.0352 14.8679C35.4527 14.6105 34.9929 14.2584 34.6556 13.8116V14.6976C34.6556 14.8111 34.6211 14.902 34.5521 14.9702C34.4907 15.0308 34.4026 15.061 34.2877 15.061H32.977C32.862 15.061 32.7701 15.0308 32.7011 14.9702C32.6397 14.902 32.6091 14.8111 32.6091 14.6976V0.545267C32.6091 0.431685 32.6397 0.344606 32.7011 0.284029C32.7701 0.21588 32.862 0.181805 32.977 0.181805H34.3107C34.4256 0.181805 34.5137 0.21588 34.5751 0.284029C34.6441 0.344606 34.6786 0.431685 34.6786 0.545267V5.86089C35.0235 5.39142 35.4834 5.02039 36.0582 4.74779C36.6331 4.4752 37.2999 4.3389 38.0587 4.3389C39.0168 4.3389 39.8906 4.56985 40.68 5.03175C41.4772 5.48607 42.1056 6.12592 42.5655 6.95128C43.0254 7.77664 43.2553 8.72316 43.2553 9.79082C43.2553 10.8358 43.0215 11.7747 42.554 12.6077C42.0865 13.433 41.4542 14.0804 40.657 14.5499C39.8598 15.0118 38.9861 15.2428 38.0357 15.2428ZM34.6326 9.79082C34.6326 10.5556 34.7744 11.203 35.058 11.7331C35.3493 12.2631 35.7439 12.6644 36.2422 12.937C36.7404 13.2021 37.3075 13.3346 37.9437 13.3346C38.4956 13.3346 39.0168 13.1983 39.5073 12.9257C40.0056 12.6531 40.408 12.2518 40.7145 11.7217C41.0288 11.1841 41.1859 10.5405 41.1859 9.79082C41.1859 9.10933 41.044 8.49978 40.7605 7.96216C40.4769 7.41696 40.086 6.99671 39.5878 6.7014C39.0973 6.39852 38.5492 6.24707 37.9437 6.24707C37.3153 6.24707 36.748 6.38337 36.2422 6.65597C35.7439 6.921 35.3493 7.32231 35.058 7.85993C34.7744 8.38998 34.6326 9.03362 34.6326 9.79082ZM49.994 15.2428C48.9593 15.2428 48.0356 15.0118 47.2232 14.5499C46.4108 14.0804 45.7746 13.433 45.3147 12.6077C44.8625 11.7747 44.6364 10.8358 44.6364 9.79082C44.6364 8.76859 44.8664 7.84101 45.3262 7.00807C45.7937 6.17513 46.4338 5.52394 47.2462 5.05446C48.0664 4.57742 48.9823 4.3389 49.994 4.3389C51.0211 4.3389 51.9409 4.57363 52.7533 5.04311C53.5657 5.505 54.198 6.15242 54.6503 6.98535C55.1026 7.81071 55.3286 8.74587 55.3286 9.79082C55.3286 10.8131 55.0948 11.7406 54.6273 12.5736C54.1674 13.4065 53.5312 14.0615 52.7188 14.5385C51.9064 15.0081 50.9981 15.2428 49.994 15.2428ZM46.7059 9.79082C46.7059 10.4572 46.8477 11.0591 47.1313 11.5968C47.4226 12.1344 47.8172 12.5584 48.3155 12.8689C48.8137 13.1794 49.3732 13.3346 49.994 13.3346C50.6072 13.3346 51.1628 13.1831 51.6611 12.8802C52.1593 12.5698 52.5502 12.1458 52.8338 11.6081C53.1173 11.0705 53.2592 10.4647 53.2592 9.79082C53.2592 9.1169 53.1173 8.51114 52.8338 7.97351C52.5502 7.43589 52.1593 7.01564 51.6611 6.71276C51.1628 6.4023 50.6072 6.24707 49.994 6.24707C49.3732 6.24707 48.8098 6.4023 48.304 6.71276C47.8057 7.01564 47.4148 7.43589 47.1313 7.97351C46.8477 8.51114 46.7059 9.1169 46.7059 9.79082ZM60.1753 15.061C60.0757 15.061 59.999 15.0383 59.9454 14.9929C59.8918 14.9474 59.8649 14.8831 59.8649 14.7998C59.8649 14.7392 59.8764 14.6824 59.8994 14.6294L65.8089 0.454403C65.8779 0.272671 66.0158 0.181805 66.2228 0.181805H68.0163C68.2232 0.181805 68.3612 0.272671 68.4302 0.454403L74.3166 14.6294C74.3396 14.6824 74.3511 14.7392 74.3511 14.7998C74.3511 14.8831 74.3243 14.9474 74.2707 14.9929C74.2171 15.0383 74.1403 15.061 74.0407 15.061H72.4081C72.2012 15.061 72.0632 14.9626 71.9943 14.7657L70.4996 11.0175H63.5784L62.0838 14.7657C62.0149 14.9626 61.8769 15.061 61.6699 15.061H60.1753ZM69.6719 8.97303L67.0275 2.36257L64.4062 8.97303H69.6719ZM79.8331 15.2428C78.8749 15.2428 77.9974 15.0156 77.2002 14.5613C76.4108 14.0994 75.7861 13.4557 75.3262 12.6304C74.8663 11.805 74.6364 10.8585 74.6364 9.79082C74.6364 8.74587 74.8702 7.81071 75.3377 6.98535C75.8052 6.15242 76.4376 5.505 77.2347 5.04311C78.0319 4.57363 78.9057 4.3389 79.856 4.3389C80.5995 4.3389 81.2587 4.46763 81.8335 4.72508C82.4084 4.98252 82.8683 5.33842 83.2132 5.79274V0.545267C83.2132 0.431685 83.2438 0.344606 83.3051 0.284029C83.3741 0.21588 83.4661 0.181805 83.5811 0.181805H84.9147C85.0297 0.181805 85.1178 0.21588 85.1792 0.284029C85.2481 0.344606 85.2826 0.431685 85.2826 0.545267V14.6976C85.2826 14.8111 85.2481 14.902 85.1792 14.9702C85.1178 15.0308 85.0297 15.061 84.9147 15.061H83.6041C83.4891 15.061 83.3971 15.0308 83.3281 14.9702C83.2668 14.902 83.2362 14.8111 83.2362 14.6976V13.7662C82.9066 14.2205 82.4468 14.5801 81.8565 14.8452C81.2663 15.1103 80.5919 15.2428 79.8331 15.2428ZM76.7059 9.79082C76.7059 10.4723 76.8477 11.0857 77.1313 11.6308C77.4148 12.1685 77.802 12.5887 78.2925 12.8916C78.7907 13.1869 79.3426 13.3346 79.948 13.3346C80.5765 13.3346 81.1398 13.2021 81.6381 12.937C82.144 12.6644 82.5387 12.2631 82.8223 11.7331C83.1136 11.1954 83.2592 10.548 83.2592 9.79082C83.2592 9.02605 83.1136 8.37862 82.8223 7.84857C82.5387 7.31853 82.1478 6.921 81.6496 6.65597C81.1513 6.38337 80.5842 6.24707 79.948 6.24707C79.3962 6.24707 78.8712 6.38337 78.3729 6.65597C77.8824 6.92856 77.48 7.33367 77.1657 7.87129C76.8592 8.40133 76.7059 9.04118 76.7059 9.79082ZM91.7684 15.2428C90.4501 15.2428 89.3809 14.955 88.5607 14.3795C87.7405 13.8041 87.2079 12.9938 86.9626 11.9489C86.9396 11.8353 86.9588 11.7444 87.0201 11.6763C87.0891 11.6006 87.185 11.5627 87.3075 11.5627H88.6412C88.8405 11.5627 88.9861 11.6611 89.0781 11.858C89.3004 12.3956 89.6184 12.7818 90.0323 13.0165C90.4462 13.2437 91.0402 13.3573 91.8144 13.3573C92.4736 13.3573 92.9832 13.2551 93.3435 13.0506C93.7038 12.8386 93.8838 12.5319 93.8838 12.1306C93.8838 11.8277 93.7804 11.5816 93.5734 11.3923C93.3665 11.203 93.0637 11.0516 92.6651 10.938C92.2666 10.8244 91.7454 10.7222 91.1016 10.6313C89.7295 10.442 88.7141 10.1051 88.0549 9.62045C87.4034 9.13584 87.0776 8.43541 87.0776 7.51919C87.0776 6.91341 87.2501 6.36822 87.595 5.88361C87.9475 5.399 88.4342 5.02039 89.0551 4.74779C89.6835 4.4752 90.3964 4.3389 91.1935 4.3389C92.4198 4.3389 93.4316 4.62664 94.2287 5.20212C95.0335 5.7776 95.547 6.5651 95.7693 7.56462C95.7923 7.68577 95.7732 7.78043 95.7119 7.84857C95.6505 7.91672 95.5548 7.9508 95.4244 7.9508H94.1368C94.0372 7.9508 93.9528 7.92808 93.8838 7.88265C93.8225 7.83722 93.7689 7.7615 93.7229 7.65549C93.4853 7.13301 93.1671 6.76576 92.7686 6.55374C92.3701 6.33415 91.8144 6.22436 91.1016 6.22436C90.4501 6.22436 89.9557 6.33037 89.6184 6.54238C89.2889 6.74683 89.1241 7.04971 89.1241 7.45104C89.1241 7.82207 89.3119 8.09466 89.6874 8.26883C90.0707 8.44299 90.6111 8.58686 91.3085 8.70044C92.3432 8.8746 93.1786 9.06769 93.8148 9.27971C94.4587 9.49172 94.976 9.82111 95.3669 10.2679C95.7578 10.707 95.9533 11.3053 95.9533 12.0625C95.9533 12.6758 95.7808 13.2248 95.4359 13.7094C95.091 14.194 94.6005 14.5726 93.9643 14.8452C93.3281 15.1103 92.5962 15.2428 91.7684 15.2428ZM103.953 15.3789C103.838 15.3789 103.746 15.3487 103.677 15.2881C103.616 15.2199 103.585 15.129 103.585 15.0155V0.86317C103.585 0.749589 103.616 0.662557 103.677 0.601933C103.746 0.533784 103.838 0.499709 103.953 0.499709H105.448C105.563 0.499709 105.651 0.533784 105.712 0.601933C105.781 0.662557 105.816 0.749589 105.816 0.86317V13.289H113.128C113.243 13.289 113.331 13.3231 113.392 13.3912C113.461 13.4519 113.496 13.5389 113.496 13.6525V15.0155C113.496 15.129 113.461 15.2199 113.392 15.2881C113.331 15.3487 113.243 15.3789 113.128 15.3789H103.953ZM115.603 15.3789C115.488 15.3789 115.396 15.3487 115.327 15.2881C115.266 15.2199 115.235 15.129 115.235 15.0155V5.20199C115.235 5.08841 115.266 5.00138 115.327 4.94076C115.396 4.87261 115.488 4.83853 115.603 4.83853H116.937C117.052 4.83853 117.14 4.87261 117.201 4.94076C117.27 5.00138 117.304 5.08841 117.304 5.20199V15.0155C117.304 15.129 117.27 15.2199 117.201 15.2881C117.14 15.3487 117.052 15.3789 116.937 15.3789H115.603ZM116.27 3.06666C115.864 3.06666 115.526 2.93788 115.258 2.68048C114.997 2.41541 114.867 2.08985 114.867 1.70367C114.867 1.30997 114.997 0.984277 115.258 0.726873C115.526 0.469468 115.864 0.340695 116.27 0.340695C116.684 0.340695 117.021 0.469468 117.281 0.726873C117.542 0.984277 117.672 1.30997 117.672 1.70367C117.672 2.08985 117.542 2.41541 117.281 2.68048C117.021 2.93788 116.684 3.06666 116.27 3.06666ZM124.838 15.5607C124.087 15.5607 123.42 15.4357 122.838 15.1858C122.255 14.9284 121.795 14.5763 121.458 14.1295V15.0155C121.458 15.129 121.424 15.2199 121.355 15.2881C121.293 15.3487 121.205 15.3789 121.09 15.3789H119.78C119.665 15.3789 119.573 15.3487 119.504 15.2881C119.442 15.2199 119.412 15.129 119.412 15.0155V0.86317C119.412 0.749589 119.442 0.662557 119.504 0.601933C119.573 0.533784 119.665 0.499709 119.78 0.499709H121.113C121.228 0.499709 121.316 0.533784 121.378 0.601933C121.447 0.662557 121.481 0.749589 121.481 0.86317V6.1788C121.826 5.70928 122.286 5.33829 122.861 5.0657C123.436 4.7931 124.102 4.6568 124.861 4.6568C125.819 4.6568 126.693 4.8878 127.483 5.34965C128.28 5.80398 128.908 6.44387 129.368 7.26918C129.828 8.0945 130.058 9.04106 130.058 10.1087C130.058 11.1537 129.824 12.0926 129.357 12.9256C128.889 13.7509 128.257 14.3983 127.46 14.8678C126.663 15.3297 125.789 15.5607 124.838 15.5607ZM121.435 10.1087C121.435 10.8736 121.577 11.521 121.86 12.051C122.152 12.581 122.547 12.9823 123.045 13.2549C123.543 13.52 124.11 13.6525 124.746 13.6525C125.298 13.6525 125.819 13.5162 126.31 13.2436C126.808 12.971 127.21 12.5696 127.517 12.0396C127.831 11.502 127.988 10.8584 127.988 10.1087C127.988 9.42724 127.847 8.81773 127.563 8.28006C127.279 7.73487 126.889 7.31461 126.39 7.0193C125.9 6.71646 125.352 6.56498 124.746 6.56498C124.118 6.56498 123.551 6.70127 123.045 6.97387C122.547 7.23894 122.152 7.64017 121.86 8.17784C121.577 8.70784 121.435 9.35156 121.435 10.1087ZM132.175 15.3789C132.06 15.3789 131.968 15.3487 131.899 15.2881C131.838 15.2199 131.807 15.129 131.807 15.0155V5.20199C131.807 5.08841 131.838 5.00138 131.899 4.94076C131.968 4.87261 132.06 4.83853 132.175 4.83853H133.485C133.6 4.83853 133.689 4.87261 133.75 4.94076C133.819 5.00138 133.853 5.08841 133.853 5.20199V6.06522C134.206 5.60336 134.608 5.25495 135.06 5.02026C135.513 4.77791 135.984 4.6568 136.475 4.6568C136.866 4.6568 137.241 4.69471 137.601 4.77038C137.801 4.81582 137.9 4.95212 137.9 5.17928V6.42868C137.9 6.52707 137.874 6.60658 137.82 6.6672C137.774 6.72016 137.709 6.74671 137.624 6.74671C137.594 6.74671 137.548 6.73918 137.486 6.72399C137.18 6.64832 136.835 6.61041 136.452 6.61041C135.647 6.61041 135.015 6.86029 134.555 7.36005C134.103 7.85229 133.876 8.53377 133.876 9.40452V15.0155C133.876 15.129 133.842 15.2199 133.773 15.2881C133.712 15.3487 133.623 15.3789 133.508 15.3789H132.175ZM143.599 15.5607C142.603 15.5607 141.702 15.3335 140.898 14.8792C140.093 14.4173 139.457 13.7736 138.989 12.9483C138.522 12.123 138.288 11.1764 138.288 10.1087C138.288 9.06378 138.522 8.12857 138.989 7.30326C139.464 6.47028 140.108 5.82286 140.921 5.36101C141.733 4.89149 142.634 4.6568 143.622 4.6568C144.351 4.6568 145.002 4.78558 145.577 5.04298C146.152 5.30039 146.612 5.65632 146.956 6.11065V5.20199C146.956 5.08841 146.987 5.00138 147.048 4.94076C147.117 4.87261 147.209 4.83853 147.324 4.83853H148.612C148.727 4.83853 148.815 4.87261 148.876 4.94076C148.945 5.00138 148.98 5.08841 148.98 5.20199V15.0155C148.98 15.129 148.945 15.2199 148.876 15.2881C148.815 15.3487 148.727 15.3789 148.612 15.3789H147.324C147.209 15.3789 147.117 15.3487 147.048 15.2881C146.987 15.2199 146.956 15.129 146.956 15.0155V14.0159C146.619 14.5005 146.159 14.8792 145.577 15.1518C144.994 15.4244 144.335 15.5607 143.599 15.5607ZM140.357 10.1087C140.357 10.7902 140.499 11.4036 140.783 11.9488C141.066 12.4864 141.453 12.9067 141.944 13.2095C142.442 13.5048 142.994 13.6525 143.599 13.6525C144.228 13.6525 144.791 13.52 145.289 13.2549C145.795 12.9823 146.19 12.581 146.474 12.051C146.765 11.5133 146.91 10.8659 146.91 10.1087C146.91 9.3439 146.765 8.69648 146.474 8.16648C146.19 7.63648 145.799 7.23894 145.301 6.97387C144.803 6.70127 144.236 6.56498 143.599 6.56498C143.047 6.56498 142.522 6.70127 142.024 6.97387C141.534 7.24647 141.131 7.65153 140.817 8.1892C140.511 8.7192 140.357 9.35909 140.357 10.1087ZM151.464 15.3789C151.349 15.3789 151.257 15.3487 151.188 15.2881C151.126 15.2199 151.096 15.129 151.096 15.0155V5.20199C151.096 5.08841 151.126 5.00138 151.188 4.94076C151.257 4.87261 151.349 4.83853 151.464 4.83853H152.774C152.889 4.83853 152.977 4.87261 153.039 4.94076C153.108 5.00138 153.142 5.08841 153.142 5.20199V6.06522C153.495 5.60336 153.897 5.25495 154.349 5.02026C154.802 4.77791 155.273 4.6568 155.764 4.6568C156.154 4.6568 156.53 4.69471 156.89 4.77038C157.09 4.81582 157.189 4.95212 157.189 5.17928V6.42868C157.189 6.52707 157.162 6.60658 157.109 6.6672C157.063 6.72016 156.998 6.74671 156.913 6.74671C156.883 6.74671 156.837 6.73918 156.775 6.72399C156.469 6.64832 156.124 6.61041 155.741 6.61041C154.936 6.61041 154.303 6.86029 153.844 7.36005C153.391 7.85229 153.165 8.53377 153.165 9.40452V15.0155C153.165 15.129 153.131 15.2199 153.062 15.2881C153 15.3487 152.912 15.3789 152.797 15.3789H151.464ZM160.955 19.9222C160.143 19.9222 159.384 19.6496 158.679 19.1044C158.579 19.0135 158.529 18.9265 158.529 18.8432C158.529 18.7902 158.556 18.7107 158.61 18.6046L159.139 17.696C159.208 17.5749 159.299 17.5143 159.414 17.5143C159.499 17.5143 159.583 17.5445 159.667 17.6051C159.867 17.7339 160.054 17.8248 160.231 17.8777C160.407 17.9383 160.602 17.9686 160.817 17.9686C161.177 17.9686 161.488 17.8398 161.748 17.5824C162.009 17.325 162.281 16.8707 162.565 16.2194L162.956 15.3108L158.311 5.27014C158.28 5.20952 158.265 5.1452 158.265 5.07705C158.265 5.00138 158.291 4.94459 158.345 4.90668C158.406 4.86125 158.487 4.83853 158.587 4.83853H160.196C160.403 4.83853 160.541 4.9294 160.61 5.11113L164.036 13.0164L167.048 5.13384C167.087 5.04298 167.144 4.971 167.221 4.91804C167.298 4.86508 167.386 4.83853 167.485 4.83853H169.026C169.126 4.83853 169.202 4.86125 169.256 4.90668C169.31 4.95212 169.336 5.01643 169.336 5.09977C169.336 5.1452 169.325 5.202 169.302 5.27014L164.588 16.5602C164.12 17.7035 163.576 18.5479 162.956 19.093C162.342 19.6458 161.675 19.9222 160.955 19.9222ZM183.124 15.9241L181.975 11.4263L178.709 14.7429L179.951 10.2905L175.444 11.5171L178.801 8.29142L174.295 7.1556L178.801 5.97435L175.444 2.74863L179.951 3.97531L178.709 -0.431663L181.975 2.83949L183.124 -1.61292L184.32 2.83949L187.585 -0.431663L186.343 3.97531L190.85 2.74863L187.493 5.97435L192 7.1556L187.493 8.29142L190.85 11.5171L186.343 10.2905L187.585 14.7429L184.32 11.4263L183.124 15.9241Z" fill="white"/>
</g>
<defs>
<clipPath id="clip0_381_37">
<rect width="192" height="20" fill="white"/>
</clipPath>
</defs>
</svg>
