<svg width="240" height="49" viewBox="0 0 240 49" fill="none" xmlns="http://www.w3.org/2000/svg">
<g clip-path="url(#clip0_382_55)">
<path d="M24.4443 0C10.9735 0 0 10.9684 0 24.4392C0 37.9101 10.9684 48.9295 24.4392 48.9295C37.9101 48.9295 48.9295 37.9611 48.9295 24.4392C48.9295 10.9684 37.9101 0 24.4392 0H24.4443ZM41.1466 35.9988C35.8102 36.5901 30.0254 36.7328 24.4443 36.7328C18.8633 36.7328 13.0835 36.585 7.6911 35.9988C6.17225 35.851 5.38734 35.4637 5.19366 33.8429C4.89804 30.7593 4.89804 27.6197 4.89804 24.4392C4.89804 21.2588 4.89804 18.1702 5.19366 15.0866C5.39243 13.4709 6.17225 13.0784 7.6911 12.9306C13.0784 12.3394 18.8582 12.1967 24.4443 12.1967C30.0305 12.1967 35.8051 12.3445 41.1466 12.9306C42.7113 13.0784 43.4962 13.4658 43.695 15.0866C43.9397 18.1702 43.9397 21.3098 43.9397 24.4392C43.9397 27.5687 43.9397 30.7593 43.695 33.8429C43.5013 35.4586 42.7164 35.851 41.1466 35.9988Z" fill="url(#paint0_linear_382_55)"/>
<path d="M14.5515 24.4392C14.5515 19.0519 18.8634 14.5463 24.4444 14.5463C30.0255 14.5463 34.3374 19.0519 34.3374 24.4392C34.3374 29.8266 30.0305 34.3831 24.4444 34.3831C18.8583 34.3831 14.5515 29.8776 14.5515 24.4392Z" fill="url(#paint1_linear_382_55)"/>
<path d="M157.823 30.591C154.536 30.591 151.865 27.9203 151.865 24.276C151.865 20.6318 154.536 17.9611 157.823 17.9611C161.11 17.9611 163.781 20.6318 163.781 24.276C163.781 27.9203 161.11 30.591 157.823 30.591ZM131.014 30.591C127.828 30.591 125.157 28.0732 125.157 24.276C125.157 20.4789 127.828 17.9611 131.014 17.9611C134.199 17.9611 136.87 20.5299 136.87 24.276C136.87 28.0222 134.199 30.591 131.014 30.591ZM103.95 30.591C100.662 30.591 97.9915 27.9203 97.9915 24.276C97.9915 20.6318 100.662 17.9611 103.95 17.9611C107.237 17.9611 109.908 20.6318 109.908 24.276C109.908 27.9203 107.237 30.591 103.95 30.591ZM67.38 30.54C64.1436 30.54 61.4219 27.9712 61.4219 24.2251C61.4219 20.4789 64.1436 17.9101 67.38 17.9101C70.6165 17.9101 73.2873 20.4279 73.2873 24.2251C73.2873 28.0222 70.6165 30.54 67.38 30.54ZM157.823 11.9468C151.197 11.9468 145.652 17.1354 145.652 24.2709C145.652 31.4065 151.095 36.5951 157.823 36.5951C164.551 36.5951 169.994 31.4065 169.994 24.2709C169.994 17.1354 164.551 11.9468 157.823 11.9468ZM103.95 11.9468C97.3239 11.9468 91.7785 17.1354 91.7785 24.2709C91.7785 31.4065 97.2219 36.5951 103.95 36.5951C110.677 36.5951 116.121 31.4065 116.121 24.2709C116.121 17.1354 110.677 11.9468 103.95 11.9468ZM74.7246 12.3597C73.9549 12.3597 73.4911 12.8235 73.4911 13.5931V14.9285C72.1048 13.2312 69.536 11.9519 66.9672 11.9519C60.7032 11.9519 55.3057 17.2934 55.3057 24.276C55.3057 31.2587 60.3923 36.0905 66.8092 36.0905C69.6838 36.0905 71.8958 34.7551 73.1751 33.3688C73.1242 38.2464 70.5554 40.4584 66.1364 40.4584C63.7715 40.4584 61.5646 39.7398 58.9958 38.0935C58.3281 37.6297 57.5585 37.7826 57.1966 38.5064L55.6574 41.5339C55.2955 42.2525 55.3974 42.9202 56.1212 43.384C59.3067 45.438 63.0579 46.4625 66.2893 46.4625C74.7653 46.4625 79.4391 41.8906 79.4391 31.3606V13.5931C79.4391 12.8235 78.9753 12.3597 78.2057 12.3597H74.7144H74.7246ZM131.732 11.9468C129.266 11.9468 126.855 13.0223 125.259 14.6685V3.78179C125.259 3.01217 124.796 2.54836 124.026 2.54836H120.224C119.454 2.54836 118.99 3.01217 118.99 3.78179V34.959C118.99 35.7286 119.454 36.1924 120.224 36.1924H123.664C124.434 36.1924 124.898 35.7286 124.898 34.959V33.6236C126.386 35.3208 129.158 36.6001 131.885 36.6001C137.894 36.6001 143.083 31.1567 143.083 24.276C143.083 17.3953 137.843 11.9519 131.732 11.9519V11.9468ZM85.1526 2.34448C83.6644 1.6768 82.6348 2.34448 82.6348 3.98566V34.75C82.6348 36.3912 83.6593 37.064 85.1526 36.3912L87.1047 35.5196C88.3382 34.9539 88.9039 34.1333 88.9039 32.7979V5.93774C88.9039 4.60237 88.3382 3.78179 87.1047 3.21604L85.1526 2.34448Z" fill="url(#paint2_linear_382_55)"/>
<path d="M191.45 33.953C189.75 33.953 188.212 33.5605 186.839 32.7756C185.465 31.9776 184.38 30.8657 183.582 29.4397C182.784 28.0138 182.385 26.3786 182.385 24.534C182.385 22.7288 182.784 21.1131 183.582 19.6872C184.393 18.2482 185.491 17.1297 186.878 16.3317C188.265 15.5207 189.802 15.1151 191.49 15.1151C192.732 15.1151 193.844 15.3375 194.825 15.7823C195.807 16.2271 196.591 16.8419 197.18 17.6268V16.057C197.18 15.8608 197.232 15.7103 197.337 15.6057C197.455 15.488 197.612 15.4291 197.808 15.4291H200.006C200.202 15.4291 200.352 15.488 200.457 15.6057C200.575 15.7103 200.634 15.8608 200.634 16.057V33.0111C200.634 33.2073 200.575 33.3643 200.457 33.482C200.352 33.5867 200.202 33.639 200.006 33.639H197.808C197.612 33.639 197.455 33.5867 197.337 33.482C197.232 33.3643 197.18 33.2073 197.18 33.0111V31.2843C196.604 32.1215 195.82 32.7756 194.825 33.2465C193.831 33.7175 192.706 33.953 191.45 33.953ZM185.917 24.534C185.917 25.7114 186.159 26.771 186.643 27.7129C187.127 28.6417 187.787 29.3678 188.625 29.8911C189.475 30.4012 190.417 30.6563 191.45 30.6563C192.523 30.6563 193.484 30.4274 194.335 29.9695C195.198 29.4986 195.872 28.8053 196.356 27.8895C196.853 26.9607 197.102 25.8422 197.102 24.534C197.102 23.2128 196.853 22.0943 196.356 21.1786C195.872 20.2628 195.205 19.576 194.354 19.1182C193.504 18.6472 192.536 18.4117 191.45 18.4117C190.508 18.4117 189.612 18.6472 188.762 19.1182C187.925 19.5891 187.238 20.289 186.702 21.2178C186.178 22.1335 185.917 23.2389 185.917 24.534Z" fill="black"/>
<path d="M212.486 33.953C210.851 33.953 209.353 33.5605 207.993 32.7756C206.645 31.9776 205.579 30.8657 204.794 29.4397C204.009 28.0138 203.617 26.3786 203.617 24.534C203.617 22.7288 204.016 21.1131 204.814 19.6872C205.612 18.2482 206.691 17.1297 208.052 16.3317C209.412 15.5207 210.904 15.1151 212.526 15.1151C213.795 15.1151 214.92 15.3375 215.901 15.7823C216.882 16.2271 217.667 16.8419 218.256 17.6268V8.56115C218.256 8.36492 218.308 8.21448 218.413 8.10983C218.53 7.99209 218.687 7.93323 218.883 7.93323H221.16C221.356 7.93323 221.506 7.99209 221.611 8.10983C221.729 8.21448 221.788 8.36492 221.788 8.56115V33.0111C221.788 33.2073 221.729 33.3643 221.611 33.482C221.506 33.5867 221.356 33.639 221.16 33.639H218.923C218.726 33.639 218.57 33.5867 218.452 33.482C218.347 33.3643 218.295 33.2073 218.295 33.0111V31.402C217.732 32.1869 216.947 32.8083 215.94 33.2662C214.933 33.724 213.782 33.953 212.486 33.953ZM207.149 24.534C207.149 25.7114 207.391 26.771 207.875 27.7129C208.359 28.6417 209.02 29.3678 209.857 29.8911C210.707 30.4012 211.649 30.6563 212.683 30.6563C213.755 30.6563 214.717 30.4274 215.567 29.9695C216.431 29.4986 217.104 28.8053 217.588 27.8895C218.085 26.9607 218.334 25.8422 218.334 24.534C218.334 23.2128 218.085 22.0943 217.588 21.1786C217.104 20.2628 216.437 19.576 215.587 19.1182C214.737 18.6472 213.768 18.4117 212.683 18.4117C211.741 18.4117 210.845 18.6472 209.994 19.1182C209.157 19.5891 208.47 20.289 207.934 21.2178C207.411 22.1335 207.149 23.2389 207.149 24.534Z" fill="black"/>
<path d="M232.857 33.953C230.607 33.953 228.782 33.4559 227.383 32.4616C225.983 31.4674 225.074 30.0677 224.655 28.2624C224.616 28.0661 224.648 27.9092 224.753 27.7914C224.871 27.6606 225.034 27.5952 225.244 27.5952H227.52C227.86 27.5952 228.109 27.7653 228.266 28.1054C228.645 29.0342 229.188 29.7014 229.894 30.1069C230.601 30.4994 231.615 30.6956 232.936 30.6956C234.061 30.6956 234.931 30.519 235.546 30.1658C236.16 29.7995 236.468 29.2697 236.468 28.5763C236.468 28.0531 236.291 27.6279 235.938 27.3008C235.585 26.9738 235.068 26.7122 234.388 26.5159C233.708 26.3197 232.818 26.1431 231.719 25.9861C229.378 25.6591 227.644 25.0769 226.519 24.2397C225.407 23.4025 224.851 22.1924 224.851 20.6095C224.851 19.5629 225.146 18.6211 225.734 17.7838C226.336 16.9466 227.167 16.2925 228.226 15.8215C229.299 15.3506 230.516 15.1151 231.876 15.1151C233.969 15.1151 235.696 15.6122 237.057 16.6065C238.43 17.6007 239.307 18.9612 239.686 20.688C239.725 20.8973 239.693 21.0608 239.588 21.1786C239.483 21.2963 239.32 21.3552 239.097 21.3552H236.9C236.73 21.3552 236.586 21.3159 236.468 21.2374C236.363 21.1589 236.272 21.0281 236.193 20.845C235.788 19.9423 235.245 19.3078 234.565 18.9416C233.884 18.5622 232.936 18.3725 231.719 18.3725C230.607 18.3725 229.763 18.5556 229.188 18.9219C228.625 19.2751 228.344 19.7984 228.344 20.4918C228.344 21.1328 228.665 21.6037 229.306 21.9046C229.96 22.2055 230.882 22.454 232.072 22.6503C233.838 22.9511 235.264 23.2847 236.35 23.651C237.449 24.0173 238.332 24.5864 238.999 25.3582C239.666 26.1169 240 27.1504 240 28.4586C240 29.5182 239.706 30.4667 239.117 31.3039C238.528 32.1411 237.691 32.7952 236.605 33.2662C235.519 33.724 234.27 33.953 232.857 33.953Z" fill="black"/>
</g>
<defs>
<linearGradient id="paint0_linear_382_55" x1="397.76" y1="24.2761" x2="18.4139" y2="24.2761" gradientUnits="userSpaceOnUse">
<stop stop-color="#8800F8"/>
<stop offset="1" stop-color="#05A6FF"/>
</linearGradient>
<linearGradient id="paint1_linear_382_55" x1="1381.92" y1="24.4647" x2="63.9751" y2="24.4647" gradientUnits="userSpaceOnUse">
<stop stop-color="#8800F8"/>
<stop offset="1" stop-color="#05A6FF"/>
</linearGradient>
<linearGradient id="paint2_linear_382_55" x1="397.76" y1="24.2761" x2="18.414" y2="24.2761" gradientUnits="userSpaceOnUse">
<stop stop-color="#8800F8"/>
<stop offset="1" stop-color="#05A6FF"/>
</linearGradient>
<clipPath id="clip0_382_55">
<rect width="240" height="49" fill="white"/>
</clipPath>
</defs>
</svg>
